<svg width="986" height="545" viewBox="0 0 986 545" fill="none" xmlns="http://www.w3.org/2000/svg">
<path d="M369.659 152.752C372 152.084 371.833 151.248 371.164 149.408C370.495 147.904 370.328 146.232 370.328 144.727C370.328 140.213 372.669 136.2 374.508 132.354C374.675 131.853 375.009 131.351 375.344 130.682C376.347 128.843 378.019 126.502 380.694 125.834C386.379 124.162 391.896 121.654 396.745 118.644C404.77 113.796 413.799 112.458 422.326 109.616C427.509 107.944 433.194 109.114 437.374 109.95C441.888 109.616 445.065 109.616 448.074 109.114C452.254 108.445 456.1 104.6 455.264 101.423C454.26 97.5775 450.582 97.4103 447.907 98.2463C441.219 100.253 434.866 101.59 429.014 96.0727C428.847 95.9055 428.345 95.9055 428.011 95.9055C421.992 95.4039 415.973 95.4039 410.121 97.5775C408.783 98.0791 406.442 98.5807 405.606 97.9119C403.433 96.0727 402.262 97.5775 401.426 98.9151C398.417 103.429 393.903 105.436 389.054 107.275C386.713 108.111 382.199 106.773 383.035 111.956C383.202 112.625 382.199 112.96 381.363 112.792C376.347 112.625 372 113.628 369.157 118.477C368.154 120.149 366.148 121.319 364.142 120.651C358.959 119.313 357.119 122.657 356.618 126.335C355.782 131.686 357.287 136.869 359.126 142.052C360.63 146.064 364.643 147.904 366.482 150.913C366.984 151.582 367.151 152.084 367.486 152.418C367.987 153.087 368.489 153.087 369.659 152.752Z" fill="#2E3135"/>
<path d="M361.968 176.328C361.466 183.684 365.813 188.199 371.331 192.044C376.681 195.723 376.681 202.745 380.192 207.761C381.697 209.767 383.369 211.941 384.038 214.449C384.372 215.786 384.539 217.291 384.038 218.963C383.871 219.464 384.205 220.133 384.707 220.802C385.543 221.805 387.047 222.14 388.218 221.304C389.221 220.635 390.391 219.799 391.395 219.13C392.732 218.127 392.063 216.957 391.06 216.121C390.559 215.619 390.224 215.117 390.057 214.616C389.723 213.78 389.89 212.944 390.057 212.108C390.726 209.265 393.401 205.253 386.713 207.426C385.375 207.928 385.877 206.423 386.211 205.754C386.88 204.25 387.215 202.41 387.883 201.073L361.801 174.99C361.968 175.325 361.968 175.826 361.968 176.328Z" fill="url(#paint0_linear_21_2977)"/>
<path d="M554.244 100.422C550.231 100.756 542.206 95.5731 541.37 92.2292C540.701 89.554 539.364 89.8884 537.524 90.7244C536.521 91.0588 535.184 91.226 534.682 90.2228C533.846 88.5508 535.685 89.0524 536.354 88.5508C537.692 87.5477 536.02 87.3805 535.685 86.8789C532.676 83.3678 532.007 78.5191 536.688 74.3391C539.698 71.664 541.203 67.3169 545.215 65.4777C545.884 65.1433 547.055 64.1402 547.222 64.809C547.723 68.4873 553.575 69.992 551.067 75.1751C550.064 77.3487 550.398 80.191 553.742 81.5286C558.926 83.7022 560.096 86.7117 558.09 91.7276C557.421 93.5667 556.752 94.9043 557.922 96.5763C558.424 97.2451 558.257 98.4154 559.427 98.4154C560.597 98.4154 561.433 97.7466 561.768 96.5763C562.102 94.5699 562.771 93.0651 564.61 92.062C565.948 91.226 567.453 91.226 567.62 92.2292C568.288 95.7403 571.465 96.7435 573.472 98.7498C576.147 101.258 575.645 105.103 572.636 107.11C568.456 109.785 562.604 108.782 558.758 112.962C557.588 114.299 556.083 112.126 556.418 110.286C556.585 109.283 557.254 108.28 557.922 107.611C559.594 105.772 559.26 103.933 558.424 101.759C557.254 98.917 555.414 100.255 554.244 100.422Z" fill="#2E3135"/>
<path d="M468.64 48.4215C464.46 46.4151 460.28 49.2575 456.267 45.7464C455.431 44.9104 452.923 45.9135 451.251 45.9135C448.409 45.7463 444.898 46.5823 444.898 41.3992C444.898 40.0617 445.399 37.7209 443.727 36.2162C442.891 35.3802 441.721 33.541 443.727 32.8722C445.065 32.3706 445.901 34.2098 446.57 35.3802C447.573 36.8849 446.904 38.8913 448.743 40.3961C449.914 41.3992 451.586 39.5601 450.75 39.0585C449.245 38.0553 449.579 35.8818 448.576 35.0458C445.734 32.705 447.74 31.8691 448.911 30.8659C449.579 30.3643 450.583 30.0299 451.418 30.1971C454.762 30.5315 457.772 27.3547 460.614 28.3579C463.289 29.3611 462.286 27.8563 462.788 27.0204C463.289 26.0172 464.293 26.1844 464.961 26.686C465.463 27.0204 466.132 28.1907 466.132 28.1907C466.466 29.3611 461.952 33.541 461.45 33.3738C456.1 31.5347 460.28 37.3865 458.441 37.8881C457.939 38.0553 457.772 38.5569 457.939 38.8913C458.608 39.7273 459.778 39.5601 460.614 40.0617C464.125 41.5664 466.968 45.5792 471.649 42.904C472.652 42.2352 473.321 43.9072 473.154 45.0776C472.987 47.4183 471.315 49.7591 468.64 48.4215Z" fill="#2E3135"/>
<path d="M441.72 27.1881C442.055 30.0304 441.72 30.1976 438.376 29.6961C435.534 29.3617 435.701 29.3617 434.865 31.8696C434.364 33.3744 433.026 33.04 431.689 32.8728C430.853 32.7056 428.512 33.876 430.518 31.368C431.521 30.0305 430.351 29.8633 429.515 30.0305C426.004 30.3648 428.01 27.5225 427.676 26.3521C427.174 24.3458 428.679 24.3458 430.351 24.6802C431.187 24.8474 432.023 24.0114 433.026 23.5098C432.19 23.5098 431.354 23.3426 430.685 23.1754C429.181 23.0082 427.843 22.5066 427.843 20.6675C427.843 19.6643 427.509 18.3267 428.512 17.8251C429.682 17.1563 430.685 18.8283 431.689 18.9955C435.367 19.3299 437.206 22.6738 440.55 23.677C442.055 24.1786 442.389 25.6833 441.72 27.1881Z" fill="#2E3135"/>
<path d="M685.159 103.264C685.159 97.7462 686.998 96.0743 692.349 97.4119C695.191 98.0806 697.03 98.9166 694.355 95.0711C693.017 93.0647 694.857 91.56 696.194 92.2288C700.374 94.0679 703.718 91.2256 707.396 90.8912C712.078 90.5568 715.422 94.9039 713.248 99.0838C711.743 102.093 711.576 106.44 706.226 106.775C704.554 106.942 702.213 110.453 701.544 112.794C700.541 116.138 698.2 116.305 695.86 115.971C690.677 115.469 685.159 108.614 685.159 103.264Z" fill="#2E3135"/>
<path d="M718.765 93.5651C715.421 93.7323 715.755 90.5556 714.585 88.7164C714.585 88.7164 715.254 87.7132 715.421 87.8804C720.771 89.3852 723.614 84.5365 727.961 83.3661C729.298 83.0317 730.301 80.5238 731.973 82.5302C732.977 83.8677 733.478 85.3725 732.809 87.3789C731.639 91.0572 729.633 93.0635 725.62 93.0635C723.279 93.0635 720.938 93.3979 718.765 93.5651Z" fill="#2E3135"/>
<path d="M725.453 119.816C722.777 115.971 718.932 116.305 715.086 116.807C713.582 116.974 711.074 125.835 711.91 127.507C712.244 128.176 713.08 128.51 713.582 127.842C716.758 124.999 721.105 125.166 724.449 122.993C725.285 122.491 726.456 122.324 726.456 120.819C726.289 120.652 725.787 120.318 725.453 119.816Z" fill="#2E3135"/>
<path d="M849.512 6.9581C849.68 11.3052 847.172 15.1507 847.004 19.665C846.837 21.6714 843.995 20.6682 842.824 19.9994C837.474 16.6555 837.809 6.6237 843.493 3.27977C844.831 2.61099 846.168 0.604631 848.175 2.1094C849.847 3.27977 849.847 4.95174 849.512 6.9581Z" fill="#2E3135"/>
<path d="M416.808 207.928C418.146 204.918 419.483 201.909 420.821 198.899C422.159 195.89 418.982 192.88 421.657 190.372C425.001 187.53 427.174 183.517 430.017 180.173C432.525 177.331 431.689 175.325 429.181 172.984C426.84 170.81 422.827 171.145 421.323 168.971C418.982 165.293 417.811 167.968 416.307 168.971C415.136 169.807 413.799 170.978 413.13 172.315C410.455 178.501 405.606 181.511 399.085 182.681C395.24 183.35 390.224 191.041 391.896 192.88C394.404 195.555 391.394 197.729 390.893 197.896C387.215 199.234 387.382 202.745 386.044 205.42C385.71 206.256 385.208 207.594 386.546 207.092C393.234 204.918 390.558 208.931 389.89 211.773C389.722 212.609 389.722 213.445 389.89 214.281H412.963C414.468 212.275 415.805 210.102 416.808 207.928Z" fill="#2E3135"/>
<path d="M380.36 207.762C376.849 202.746 376.849 195.724 371.499 192.045C365.814 188.2 361.634 183.685 362.136 176.329C362.136 175.158 361.969 173.654 360.297 173.486C358.792 173.319 357.622 173.821 356.953 175.326C356.284 176.998 355.281 178.67 356.284 180.342C359.126 184.689 356.953 189.203 357.287 193.55C357.454 196.058 355.95 196.56 353.943 196.56C351.937 196.56 350.098 195.389 350.432 193.383C351.268 189.203 348.927 189.37 346.085 189.203C341.738 189.036 337.224 189.705 334.047 185.19C333.044 183.853 330.369 183.017 328.195 184.689C327.359 185.357 326.69 186.528 325.854 184.856C325.353 184.02 324.015 183.351 324.851 182.181C325.854 180.676 326.356 178.67 328.028 177.332C329.198 176.329 331.372 178.001 331.372 176.329C331.205 174.49 328.864 174.824 327.526 174.322C325.687 173.486 323.848 173.654 321.842 173.486C314.987 172.651 308.132 171.48 301.109 170.31H300.942C296.929 167.969 292.749 166.799 289.573 171.146C287.065 174.657 284.39 173.654 281.714 172.316C278.705 170.644 277.702 163.288 280.377 160.612C282.55 158.606 285.393 157.937 288.068 161.114C289.573 163.12 291.245 161.95 292.582 159.944C295.759 155.095 295.257 150.413 290.91 146.568C289.907 145.732 288.904 145.23 288.737 143.726C288.57 142.722 288.904 141.218 287.399 141.385C286.229 141.385 285.894 142.89 286.062 143.893C286.563 149.41 282.718 151.584 278.872 153.757C275.863 155.429 272.519 155.931 274.191 160.78C274.692 161.95 273.02 163.12 271.683 163.622C269.509 164.625 267.336 165.795 265.162 166.966C264.66 167.3 263.992 168.303 263.657 168.303C262.487 167.802 263.49 166.631 263.657 166.13C264.995 162.619 262.487 159.944 261.484 157.268C260.481 155.095 257.304 157.268 255.13 156.934C254.294 156.767 253.291 157.268 252.622 156.6C249.947 153.423 246.269 155.596 243.259 155.095C238.076 154.092 238.411 158.606 237.24 161.448C236.404 163.622 234.899 163.455 233.06 163.288C230.887 163.12 230.552 161.95 230.385 160.111C230.218 156.098 229.884 152.253 229.549 148.407C229.382 146.735 229.884 144.06 227.208 144.729C225.369 145.063 221.691 143.558 221.524 147.571C221.357 150.581 216.842 153.256 221.189 156.432C221.858 156.934 220.688 157.77 220.019 158.272C218.681 159.609 217.009 159.776 215.672 158.773C213.498 157.101 213.666 154.426 214 152.085C214.334 149.076 218.013 146.066 213.833 143.057C213.164 142.555 213.666 140.716 214.669 140.382C217.678 139.211 218.514 136.034 220.688 134.028C221.858 133.025 222.694 132.022 224.533 132.022C228.88 131.687 230.218 129.179 230.552 124.832C231.054 119.649 232.726 113.797 232.057 110.453C231.388 107.277 234.063 105.772 235.903 106.942C236.571 107.444 236.07 109.283 235.568 109.952C234.231 111.457 233.227 113.129 234.063 115.302C235.568 119.315 234.899 123.662 236.404 127.507C239.414 135.533 240.25 144.729 249.278 149.577C254.461 152.253 263.323 150.246 266.5 145.23C268.339 142.221 269.676 139.378 270.512 135.867C271.181 132.858 269.342 131.353 269.342 129.179C269.175 122.993 269.844 116.807 270.847 110.621C271.515 106.106 268.84 102.261 267.503 98.4153C266.165 94.2354 264.995 93.901 268.004 91.7274C268.84 91.0587 269.008 90.3899 268.673 89.3867C268.004 87.7147 269.008 84.3708 265.496 85.5412C263.824 85.7084 268.172 76.5126 264.66 77.6829C262.654 78.3517 261.651 78.5189 260.982 78.3517C260.815 78.3517 260.648 78.3517 260.481 78.1845C257.973 77.6829 255.13 77.8501 252.79 77.6829C250.282 77.5157 246.938 76.011 245.6 77.0142C242.423 79.3549 237.742 80.1909 236.739 85.374C236.07 88.8851 234.063 92.229 229.716 92.0618C223.53 91.8946 220.019 95.4058 217.177 100.087C215.505 102.762 213.164 103.598 210.322 104.936C205.974 107.11 199.788 107.277 197.782 113.797C197.113 116.138 193.602 119.649 191.596 119.482C185.577 118.813 185.577 122.492 184.741 126.337C183.236 133.861 181.731 134.697 174.04 133.861C163.841 132.691 153.642 131.353 143.61 129.347C142.774 129.179 141.771 128.511 141.269 129.347C141.102 129.681 141.604 130.684 141.938 131.186C142.941 133.359 145.617 135.199 142.273 137.706C141.437 138.375 141.437 141.218 142.607 142.722C143.777 144.06 143.109 145.397 142.941 146.735C142.941 147.404 143.109 148.407 142.273 148.407C141.437 148.407 141.437 147.571 141.269 146.902C139.096 139.044 128.228 134.697 122.042 139.88C117.026 144.06 111.843 147.069 105.155 146.902C103.65 146.902 102.48 147.905 102.48 149.41C102.48 152.253 101.811 154.259 98.1328 153.256C96.9624 152.921 95.9592 153.423 95.6249 154.593C93.6185 159.609 86.0947 162.619 90.2746 170.143C90.9434 171.48 88.101 173.988 90.2746 176.663C94.1201 181.345 92.9497 185.357 87.5994 187.865C79.9084 191.377 74.3909 200.238 75.0597 208.096C75.2269 210.27 74.5581 212.109 72.5518 212.778C70.7126 213.446 68.7062 212.61 68.0374 210.938C65.6967 204.251 63.356 205.755 60.1792 210.437C59.176 211.774 57.3369 212.61 56.1665 214.115H384.206C383.37 211.942 381.698 209.935 380.36 207.762Z" fill="#2E3135"/>
<path d="M945.316 210.938C944.981 209.433 944.647 207.594 942.808 207.26C940.969 206.926 939.297 208.43 938.294 209.601C935.117 213.613 934.95 213.781 932.275 208.932C928.596 202.244 927.593 194.386 921.574 188.868C919.4 186.862 921.574 183.351 924.584 182.682C927.259 182.18 927.091 181.01 926.256 179.505C925.587 178.168 924.249 176.83 924.751 175.158C925.252 173.653 923.748 171.647 925.587 170.811C927.593 169.808 927.426 172.483 928.429 173.152C929.599 173.821 930.77 174.991 932.275 174.155C933.947 172.985 932.776 171.48 931.94 170.477C929.432 166.798 930.101 162.953 930.603 158.94C931.606 152.921 935.786 149.744 942.306 150.748C943.477 150.915 944.647 150.58 945.316 149.744C946.319 148.407 945.316 147.404 944.313 146.568C942.139 144.728 941.638 142.388 941.303 139.545C940.969 136.034 940.133 132.356 939.297 128.845C938.126 123.829 935.451 119.147 936.12 113.797C936.789 108.28 935.618 102.762 934.95 97.4119C934.281 92.5632 935.284 89.2192 938.628 86.2097C939.966 84.8721 943.142 84.0361 941.972 81.8626C940.802 79.5219 940.467 76.1779 935.618 76.5123C932.275 76.6795 928.262 77.8499 925.252 76.6795C919.066 74.1716 914.385 75.8435 909.703 79.689C908.198 80.8594 907.529 83.7018 904.854 82.6986C905.857 80.6922 907.362 79.1875 908.7 77.5155C912.713 72.3324 912.378 66.9821 909.201 61.4646C907.028 57.7863 904.52 54.944 899.504 56.7831C896.996 57.6191 896.662 55.4456 896.662 53.6064C896.662 50.4297 898.501 52.7704 899.337 52.9376C908.031 53.9408 908.031 53.9408 908.867 44.745C908.867 44.4106 908.867 43.909 909.034 43.7418C910.539 40.8995 912.211 37.8899 916.224 39.8963C919.4 41.4011 921.24 39.8963 922.744 37.2212C924.082 34.8804 925.754 33.3756 928.596 32.5397C931.606 31.7037 932.943 29.6973 933.111 25.6846C933.278 20.8359 929.767 22.3407 927.927 21.3375C924.751 19.4983 921.574 16.3216 917.227 17.9936C916.892 18.1608 916.558 18.1608 916.391 18.328C916.558 17.9936 916.725 17.492 916.892 17.1576C919.066 14.6496 920.404 11.8073 919.066 8.46337C918.063 5.95543 913.549 5.62104 914.552 1.44113C914.719 1.10673 913.214 0.605143 912.713 1.10673C908.031 7.62739 896.829 6.12262 894.488 15.9872C893.987 17.9936 892.482 19.9999 892.482 22.1735C892.482 23.5111 892.482 24.8486 890.643 24.5142C882.45 23.1767 877.936 30.1989 871.582 33.0412C865.73 35.7164 860.714 39.5619 854.863 42.4042C847.84 45.7482 841.487 50.4297 837.474 56.6159C833.629 62.3006 830.953 68.4869 825.77 73.1684C824.266 74.506 822.092 75.3419 822.761 78.0171C826.606 76.6795 825.436 84.8721 830.786 82.0298C832.458 81.1938 836.973 80.6922 837.809 85.0393C838.812 89.3864 836.471 89.2192 833.294 88.8848C832.291 88.7177 831.121 89.7208 830.118 90.5568C828.947 91.3928 827.944 91.56 826.774 90.724C825.269 89.7208 825.938 88.8848 826.774 87.7145C827.944 86.3769 827.275 85.3737 826.105 84.2033C824.433 82.5314 823.262 82.5314 821.256 84.0362C818.748 85.8753 817.411 87.2129 819.083 90.5568C820.922 94.0679 817.243 104.1 813.398 104.601C809.887 105.103 809.72 107.444 808.382 109.283C806.877 111.289 805.874 113.797 804.871 116.138C803.199 120.151 797.347 121.823 795.341 119.315C789.99 112.627 783.971 111.958 777.451 117.643C772.936 121.488 769.258 126.002 767.252 132.022C766.248 135.198 764.242 139.545 758.892 136.369C757.22 135.365 755.214 136.201 753.374 136.369C751.201 136.536 748.024 139.044 746.519 136.201C743.844 130.851 739.999 133.025 737.323 134.697C733.311 137.372 728.964 138.877 724.449 139.88C718.096 141.385 713.414 146.902 706.559 147.404C705.055 147.571 703.884 149.243 706.058 150.246C709.736 151.918 707.897 153.088 706.058 154.426C701.878 157.435 703.55 159.943 706.727 162.284C708.231 163.454 710.405 163.454 711.408 165.461C711.575 165.962 712.746 166.13 712.244 166.966C711.742 167.634 711.241 167.969 710.405 167.634C707.563 165.962 706.559 168.136 704.72 169.808C702.881 171.48 701.543 174.991 697.531 173.821C696.026 173.319 695.357 175.325 694.688 176.496C691.01 182.849 691.01 182.849 684.155 179.171C683.486 178.837 683.152 177.332 682.149 178.001C681.146 178.669 681.313 179.673 681.647 180.843C682.483 184.354 683.152 188.032 683.821 191.543C683.988 192.379 684.322 193.215 682.985 193.55C679.975 194.553 670.612 191.042 670.612 188.032C670.445 181.679 664.593 178.168 664.091 172.149C663.757 168.972 655.23 165.795 652.388 166.966C648.375 168.638 644.195 170.477 640.517 166.297C640.182 165.962 639.346 165.795 639.346 166.464C639.346 169.808 634.331 172.483 638.343 176.496C639.179 177.332 640.684 179.84 638.678 181.01C633.829 184.02 628.311 183.184 622.961 183.852C621.456 184.02 620.286 183.351 620.955 181.344C621.624 179.673 619.784 178.837 618.948 179.004C614.1 180.007 608.749 178.001 604.235 181.177C601.727 183.016 599.219 184.521 597.38 180.174C597.213 179.84 595.541 177.165 595.039 180.174C594.872 181.344 595.207 182.18 593.702 182.348C592.197 182.515 590.859 182.013 589.856 181.01C589.187 180.341 591.027 177.332 588.351 178.837C586.345 179.84 582.834 178.669 582.332 182.515C582.165 184.02 581.998 185.023 583.67 185.357C584.172 185.524 585.008 184.521 585.342 185.524C585.509 185.859 584.506 187.029 584.172 187.029C582.332 186.695 581.664 188.534 580.66 189.036C577.985 190.206 576.648 193.55 573.304 193.048C572.635 192.881 571.465 193.383 571.297 192.881C571.13 192.714 572.301 191.878 572.635 191.376C574.14 187.196 578.654 185.859 580.828 181.846C583.336 176.997 586.345 172.316 590.525 168.303C594.538 164.625 595.541 159.776 594.705 154.593C593.869 149.41 590.692 144.561 586.68 142.889C581.998 140.883 575.812 139.88 571.13 144.896C570.796 145.397 569.793 145.732 569.291 145.564C568.121 145.23 568.455 144.227 568.957 143.391C571.632 138.877 569.458 138.375 565.446 138.709C564.61 138.877 563.606 138.041 562.603 137.539C563.105 136.87 563.606 135.867 564.275 135.7C568.789 134.362 566.282 133.359 564.108 132.858C561.6 132.189 559.426 128.845 556.919 130.517C552.571 133.192 548.057 137.372 548.224 142.388C548.224 148.24 546.051 148.407 541.871 147.738C540.701 147.571 539.363 147.905 540.199 149.243C543.041 154.091 537.691 152.085 536.521 153.423C535.517 154.593 534.013 152.587 534.849 150.748C535.016 150.58 534.514 149.744 534.18 149.577C533.009 148.908 519.132 152.754 519.299 153.757C520.303 158.104 516.624 156.098 515.119 156.934C514.116 157.435 512.946 157.603 511.776 157.603C505.924 157.603 501.911 162.953 495.892 162.618C494.889 162.618 493.718 163.454 492.548 163.956C485.86 166.297 485.191 169.641 490.374 174.322C493.05 176.83 493.384 177.833 491.545 178.168C487.365 178.837 483.687 181.01 479.005 179.505C475.995 178.669 472.819 178.001 469.809 177.332C466.632 176.663 463.623 176.663 463.456 181.344C463.289 184.187 463.79 187.196 461.617 189.704C460.781 190.54 461.617 192.547 462.62 192.881C467.301 194.553 465.128 200.572 468.973 202.578C469.475 202.913 469.308 203.749 468.806 203.582C466.465 202.578 462.453 205.922 461.951 202.244C460.948 195.723 456.434 192.212 452.755 187.531C451.25 185.692 449.746 185.692 448.241 186.528C447.071 187.364 444.563 188.032 446.736 190.373C447.572 191.376 447.07 192.714 446.235 193.048C445.231 193.717 445.231 191.878 444.563 191.711C441.72 190.373 439.714 191.209 439.212 194.386C438.711 197.061 439.212 199.569 441.553 201.575C442.389 202.244 443.559 204.083 441.553 204.25C439.714 204.25 437.707 202.746 436.203 201.575C434.865 200.405 436.036 198.9 436.203 197.563C437.373 190.54 444.897 184.856 440.717 176.83C440.55 176.329 441.219 175.158 440.215 174.657C439.714 174.489 438.711 174.489 438.209 174.824C437.039 175.66 437.875 176.663 438.209 177.666C440.215 184.354 438.543 187.531 432.19 189.704C428.177 191.042 424.833 192.881 426.004 198.566C426.673 201.91 427.007 206.926 425.001 208.765C422.66 210.938 420.653 213.279 419.316 215.787H877.1C876.431 213.948 875.762 212.276 874.759 210.604C874.425 210.102 874.425 209.266 874.425 208.597C873.923 204.083 879.273 196.058 883.788 194.219C885.125 193.717 886.296 192.714 885.292 190.875C884.958 190.206 884.624 189.37 885.627 189.203C886.128 189.036 886.964 189.704 887.132 190.206C887.8 191.376 888.135 192.714 888.469 194.051C889.472 197.228 891.813 198.399 894.488 197.061C895.993 196.225 895.157 198.064 895.658 198.566C896.327 199.234 896.996 200.405 898.166 200.238C899.838 199.903 898.501 198.566 899.002 197.563C899.337 196.727 899.838 196.058 899.671 194.72C899.002 188.868 894.321 183.016 900.173 177.165C900.842 176.496 900.674 174.155 897.832 173.486C892.816 172.483 889.974 166.13 891.98 161.615C892.649 160.111 893.987 159.776 894.99 159.943C896.662 160.278 894.99 161.448 894.99 162.117C894.99 164.29 895.157 165.962 897.33 166.966C901.176 168.638 901.343 173.821 906.025 175.158C907.028 175.493 909.201 180.676 908.198 184.856C906.359 193.717 911.375 201.91 912.545 210.604C912.713 212.276 913.214 213.781 913.549 215.453H951.837C948.325 215.787 946.319 214.449 945.316 210.938Z" fill="#2E3135"/>
<path d="M912.546 241.704C911.877 242.54 912.546 243.543 914.051 243.877C917.896 244.546 918.732 247.054 918.899 250.732C919.067 253.575 918.231 256.919 920.07 259.427C927.259 268.957 934.95 277.818 945.651 284.004C954.512 289.188 963.708 294.036 972.068 300.055C975.913 302.73 979.926 304.904 983.771 307.412C985.778 308.75 985.611 306.743 985.443 305.74C985.109 302.396 984.106 299.052 984.273 295.875C984.44 289.522 982.936 284.172 977.251 280.159C973.405 277.317 972.737 271.465 975.746 268.79C981.598 263.941 974.576 264.108 973.907 262.102C973.74 261.767 972.904 261.767 972.569 261.433C967.386 258.256 966.55 249.896 970.897 245.549C972.235 244.045 973.74 242.54 972.737 240.032C971.733 237.524 970.396 236.521 967.721 236.353C963.206 236.019 958.023 230.836 957.354 226.489C957.02 224.315 958.19 223.312 960.197 222.811C961.534 222.476 962.705 222.142 962.036 220.303C960.698 216.791 957.355 214.952 954.345 214.952C953.342 214.952 952.506 214.785 951.67 214.785H913.382C915.723 223.647 919.903 232.508 912.546 241.704Z" fill="#2E3135"/>
<path d="M416.976 221.805C416.976 222.976 414.133 224.648 415.805 224.982C418.313 225.651 420.821 228.995 422.326 227.825C425.168 225.651 426.004 227.825 427.342 228.995C427.843 229.497 428.512 231.001 428.345 231.168C427.509 232.004 427.007 230.667 426.171 230.5C418.313 228.995 414.969 231.336 413.799 239.194C413.465 241.869 412.629 244.711 409.452 245.882C408.281 246.383 406.609 247.387 406.275 248.39C404.77 252.57 401.092 253.238 397.414 254.074C395.742 254.409 393.903 254.409 393.234 256.582C392.565 258.589 390.893 258.756 390.057 257.753C388.385 255.746 387.382 253.238 390.559 251.734C391.227 251.399 391.729 251.065 392.231 250.563C398.584 245.213 404.938 240.03 410.288 233.509C411.458 232.172 411.458 230.834 410.789 229.664C407.78 223.645 409.953 218.796 412.796 214.114H389.723C389.89 214.616 390.224 215.118 390.726 215.619C391.729 216.622 392.398 217.626 391.06 218.629C390.057 219.465 389.054 220.134 387.883 220.802C386.713 221.638 385.208 221.304 384.372 220.301C383.871 219.632 383.536 218.963 383.704 218.462C384.205 216.79 384.038 215.285 383.704 213.947H56.1658C56.1658 213.947 56.1658 213.947 55.9986 214.114C54.1595 216.288 54.8282 219.632 57.5034 220.468C65.5288 223.143 67.2008 231.168 61.0145 237.02C60.5129 237.522 60.0113 238.024 59.5097 238.525C57.169 240.364 56.5002 242.538 58.3394 245.213C59.5097 246.885 60.1785 249.059 58.6738 250.563C54.4938 254.242 52.3203 257.753 56.1658 263.27C59.5097 267.952 61.8505 272.968 62.5193 279.321C63.0209 284.337 65.696 289.687 66.6992 295.205C67.0336 297.044 66.0304 298.883 64.5256 298.883C60.0113 298.716 57.5034 301.893 54.661 304.401C52.6547 306.24 49.8123 306.24 47.4716 307.577C46.134 308.413 46.134 304.568 44.6293 303.899C41.6197 302.227 38.2758 300.555 34.7647 300.555C33.2599 300.555 30.9192 301.893 30.2504 303.397C29.2472 305.905 32.2567 305.571 33.4271 306.407C34.2631 307.076 34.7647 307.912 35.4335 308.915C36.2694 309.918 37.7742 311.924 37.607 312.092C35.7679 313.764 35.6007 310.921 34.4303 310.754C31.2535 310.587 29.4144 307.744 26.4049 307.243C25.0673 306.908 25.0673 304.233 23.2281 305.404C21.8905 306.24 21.7233 307.744 21.7233 309.584C21.7233 312.426 19.5498 314.599 16.7075 313.596C14.0323 312.593 11.5244 312.426 9.01642 312.928C6.67567 313.429 5.5053 312.928 5.83969 310.42C6.00689 309.249 5.5053 307.744 4.66932 308.079C3.16455 308.748 1.49259 307.744 0.489407 308.748C-0.513772 309.751 0.155014 311.256 1.32539 311.924C3.33175 313.262 2.32857 314.6 1.65978 315.937C0.823799 317.442 -0.179378 318.947 0.322211 320.786C2.66296 329.146 2.99735 337.673 0.990996 346.2C0.656603 348.039 -0.179379 349.711 2.49576 350.38C5.67249 351.216 6.17408 354.225 7.34446 356.733C9.35081 361.582 8.18044 368.27 15.2027 370.276C15.5371 370.443 16.0387 370.945 16.2059 371.446C17.209 376.629 21.5562 381.478 18.3794 387.33C17.5434 388.835 18.881 389.002 20.2186 389.504C23.7297 390.841 25.5689 394.519 28.5784 396.526H60.5129C60.5129 395.021 60.5129 393.683 61.1817 392.513C62.6865 389.671 65.8632 393.516 68.3711 391.51C74.5574 386.996 81.2453 387.999 87.5987 391.51C90.2739 393.015 91.7786 391.175 93.785 390.339C96.4601 389.169 94.1194 387.832 94.1194 386.661C94.1194 385.491 93.4506 383.317 94.7882 383.484C99.9713 383.986 99.9713 380.475 99.9713 377.131C100.138 373.787 101.643 369.941 99.1353 367.434C96.2929 364.758 96.2929 362.585 98.1321 359.743C98.9681 358.572 98.9681 357.402 98.4665 356.231C95.7914 351.048 99.1353 349.711 102.981 348.875C104.82 348.54 106.659 348.875 107.495 346.367C109.334 340.849 115.855 337.171 121.205 338.341C123.379 338.843 124.382 340.348 124.382 342.689C124.382 344.528 124.048 346.2 124.048 348.039C124.048 350.38 125.72 351.048 127.057 349.209C129.565 345.865 131.404 342.354 136.587 345.698C137.925 346.534 140.266 343.19 142.439 344.695C145.616 347.036 149.127 346.534 152.471 345.865C159.159 344.528 158.824 354.559 165.345 353.723C165.679 353.723 166.348 355.061 166.683 355.897C166.85 356.399 166.515 357.067 166.683 357.402C169.023 362.418 174.039 365.929 173.705 372.282C173.705 372.282 174.708 372.449 175.21 372.449C176.38 372.449 177.049 372.617 176.882 374.289C176.547 376.964 178.721 379.137 178.554 381.98C178.386 383.819 180.393 385.491 182.733 383.819C185.241 381.812 187.081 383.317 189.589 383.986C192.765 384.822 192.932 387.832 195.273 389.002C199.286 390.674 203.8 392.011 204.971 397.027H221.356C220.353 393.182 222.359 391.343 227.375 391.343C229.047 391.343 230.552 391.51 230.384 389.671C230.05 385.324 233.394 385.491 235.902 384.989C238.744 384.488 240.416 383.484 239.747 380.308C239.246 377.633 239.915 375.292 242.59 374.289C245.098 373.285 247.439 373.787 249.445 375.626C251.618 377.633 254.294 378.301 256.969 379.305C269.843 383.986 283.887 384.32 296.761 388.668C297.765 389.002 298.935 389.169 299.938 388.668C304.954 386.494 309.636 388.668 314.317 390.172C316.323 390.841 315.989 394.018 318.163 394.185C321.172 394.519 322.51 395.523 322.677 397.027H878.271C876.766 392.179 876.264 386.828 875.595 381.645C875.595 381.311 875.428 380.14 875.261 379.639C875.094 379.305 874.759 379.472 874.592 379.472C869.744 380.642 870.747 373.285 866.734 373.285C867.904 368.437 864.393 368.771 861.384 368.771C858.207 368.604 855.197 368.102 852.355 366.096C850.683 364.926 847.841 363.922 846.503 364.758C844.162 366.43 842.658 368.938 839.481 369.44C839.648 369.942 839.481 370.443 839.815 370.777C843.494 374.957 838.645 377.967 838.478 381.645C838.478 381.98 837.307 382.314 836.806 382.648C836.639 381.98 836.304 381.311 836.304 380.809C836.973 377.633 831.79 377.465 832.626 373.954C832.793 373.62 831.121 373.787 830.62 374.623C829.449 376.128 828.948 377.633 830.118 379.472C830.62 380.308 832.793 380.976 830.62 382.147C828.78 382.983 829.115 381.144 828.613 380.14C827.276 377.8 825.771 374.957 823.597 373.787C821.758 372.784 820.421 375.961 818.916 377.298C817.077 378.97 814.401 378.301 812.562 377.298C811.058 376.462 812.061 374.289 812.897 373.118C815.906 368.604 815.237 363.086 817.578 358.238C820.755 351.383 819.083 343.692 820.588 336.502C822.093 328.978 824.266 321.789 822.427 313.931C822.093 312.76 823.096 311.256 823.597 309.918C824.099 308.413 824.6 306.908 824.433 305.236C823.43 295.205 832.96 284.337 843.326 283.501C844.664 283.334 845.5 282.163 845.333 281.495C843.494 276.144 848.008 276.646 850.683 275.476C851.519 275.141 852.69 274.64 852.69 273.971C853.191 270.961 854.696 269.958 857.873 270.125C860.046 270.292 860.38 268.286 858.876 266.447C856.368 263.437 857.873 260.261 861.551 259.09C864.059 258.254 867.904 259.257 868.74 254.576C868.908 253.238 872.084 254.074 873.422 254.743C875.261 255.914 872.419 255.746 872.419 256.75C872.586 258.087 870.58 259.592 871.917 260.428C873.087 261.264 875.261 261.933 876.766 260.595C878.103 259.425 880.11 258.421 879.441 255.914C879.274 255.078 878.605 254.074 880.11 254.074C884.457 254.409 882.785 250.898 883.454 248.891C883.788 247.888 882.618 245.882 884.122 245.715C887.801 245.547 887.968 241.869 890.309 240.197C891.145 239.528 892.817 238.692 891.981 237.355C891.145 235.85 889.138 235.181 887.801 236.184C881.615 240.197 881.949 233.844 880.11 231.336C879.274 230.165 879.608 228.326 879.608 226.654C879.943 222.307 879.441 218.127 878.103 214.114H418.815C417.644 216.622 416.976 218.963 416.976 221.805Z" fill="#2E3135"/>
<path d="M204.637 398.198C204.804 401.208 207.981 405.555 209.318 404.886C214.668 402.044 214.836 405.555 216.34 408.732C217.176 410.571 220.353 412.243 221.858 410.905C223.53 409.4 227.208 407.06 223.864 403.548C222.861 402.378 222.359 400.873 221.691 399.369C221.189 398.365 221.022 397.529 220.687 396.693H204.302C204.469 397.195 204.469 397.697 204.637 398.198Z" fill="#2E3135"/>
<path d="M321.339 399.535C320.671 401.541 322.343 404.217 320.169 406.223C319.5 406.724 320.336 408.229 321.339 408.229C325.519 407.895 326.523 411.072 328.696 413.58C330.034 415.084 330.702 418.094 333.378 417.927C336.722 417.927 337.056 419.097 335.384 421.772C333.712 424.614 334.381 425.45 338.059 425.618C341.069 425.618 342.908 423.444 345.583 422.943C348.592 422.441 352.438 423.611 355.28 420.435C356.618 418.93 359.627 420.435 361.132 421.605C362.804 422.942 360.463 424.447 359.627 425.283C358.29 426.955 357.788 428.293 358.791 430.132C365.981 443.842 368.322 458.723 369.659 473.937C369.826 474.941 369.659 476.278 370.83 476.613C372.167 477.114 372.502 475.609 373.17 474.941C376.347 471.764 378.688 472.098 380.527 476.278C383.704 483.635 387.549 485.474 394.906 483.468C396.745 482.966 398.919 482.966 400.256 484.805C404.269 490.155 406.442 496.676 410.957 501.859C411.124 502.026 410.957 502.528 410.957 502.862C411.291 506.541 416.976 509.383 419.985 507.21C421.156 506.374 421.825 504.702 423.496 505.538C425.001 506.374 424.165 507.878 424.332 509.216C424.5 512.393 426.84 514.566 429.348 516.071C431.689 517.408 434.364 517.409 436.036 514.232C436.705 512.894 438.043 513.061 439.213 513.73C441.386 515.235 443.56 513.897 445.734 513.73C449.077 513.396 450.917 510.386 453.592 508.881C457.772 506.374 463.122 505.538 466.968 503.197C475.996 497.679 483.018 504.2 490.877 505.203C492.381 505.37 492.549 506.875 493.05 508.045C495.224 513.229 499.905 515.737 505.256 514.232C506.593 513.897 507.429 514.399 508.432 514.733C514.117 515.737 519.969 517.408 525.486 514.566C528.329 513.061 530.335 510.553 528.329 506.875C524.149 499.184 525.152 496.007 531.004 489.988C533.344 487.648 534.849 487.48 537.524 488.651C543.209 491.326 549.563 491.995 555.582 494.168C559.26 495.506 561.266 496.175 561.601 500.522C562.102 507.544 573.137 515.068 579.156 511.724C586.011 508.046 592.198 506.875 599.889 507.878C605.573 508.547 608.248 515.235 614.268 513.563C614.435 513.563 614.769 514.399 614.936 514.901C616.608 518.579 619.785 519.582 623.631 519.415C627.476 519.248 631.322 519.749 635.167 519.582C637.675 519.582 640.517 520.418 642.357 518.746C647.038 514.733 652.556 513.396 658.073 511.724C660.079 511.055 661.25 509.717 661.751 507.711C663.925 499.686 671.114 496.509 678.471 500.02C680.31 500.856 682.317 501.525 684.323 500.02C687.332 498.014 690.175 497.512 693.351 500.02C696.361 502.361 701.043 502.194 703.216 500.689C707.229 497.847 710.071 493.165 713.415 489.152C713.582 488.818 713.582 488.484 713.415 488.149C709.57 484.304 712.579 479.956 712.913 475.944C713.248 472.098 713.248 468.086 715.087 464.407C718.431 457.887 717.261 454.375 710.573 451.366C710.071 451.199 709.737 451.032 709.904 450.363C711.241 447.52 711.409 443.842 714.084 442.17C719.768 438.659 725.62 435.817 731.639 432.807C733.144 432.138 734.649 432.138 736.488 432.473C739.498 433.141 743.51 435.649 745.851 433.309C748.526 430.801 749.529 432.305 751.536 433.309C756.886 435.984 760.899 439.829 764.243 444.845C769.593 452.703 778.789 457.218 783.136 466.246C784.306 468.754 787.149 469.925 789.991 468.754C796.344 466.079 802.196 467.082 808.215 469.758C809.051 470.092 810.055 470.259 811.058 470.259C814.234 470.593 817.913 473.77 818.414 476.947C818.749 479.622 824.768 483.3 826.607 481.796C829.115 479.622 832.459 479.288 835.134 477.616C836.806 476.613 838.98 475.944 839.314 473.269C840.15 466.748 846.503 463.906 849.68 458.89C850.182 458.221 851.854 456.215 852.188 458.555C852.69 462.401 858.876 465.243 854.194 470.092C853.86 470.426 854.194 471.429 854.362 472.098C857.037 481.294 858.709 490.49 858.374 500.187C858.207 503.03 857.873 503.364 855.699 503.197C847.339 502.361 843.995 508.38 841.32 514.399C839.648 518.412 842.658 522.09 844.497 525.601C845.667 527.942 847.674 529.781 849.68 531.62C852.188 533.794 854.362 535.633 850.349 538.642C849.179 539.478 848.677 541.986 850.683 542.488C853.024 543.157 854.529 545.665 857.204 544.829C857.706 544.661 858.04 543.993 857.538 543.491C854.027 539.813 860.548 539.144 859.712 536.302C859.545 535.967 860.715 534.964 861.049 536.134C862.053 539.478 862.721 537.974 863.39 536.134C863.725 535.466 863.725 533.794 864.895 534.964C868.741 538.642 872.252 534.797 875.094 533.794C881.782 531.787 890.309 514.901 889.807 507.042C889.306 499.351 890.81 491.66 892.148 484.136C893.318 477.114 894.823 470.092 894.154 462.735C893.318 452.202 891.981 441.501 894.154 430.968C894.823 427.457 892.984 423.778 891.479 420.769C888.637 414.415 885.126 408.396 880.946 402.712C879.107 400.204 877.769 397.529 876.933 394.854H322.008C322.343 396.358 321.841 397.863 321.339 399.535Z" fill="#2E3135"/>
<path d="M28.5781 395.188C26.2374 397.863 32.9252 402.21 26.9061 404.551C26.739 404.551 26.739 406.724 27.2405 407.56C30.9189 413.412 30.4173 419.933 30.9189 426.286C31.2533 430.633 34.5972 432.64 38.2755 432.138C41.6194 431.804 47.3041 434.813 47.6385 426.788C47.8057 419.765 48.1401 412.242 54.4936 406.724C56.8343 404.718 58.6735 401.708 60.011 398.866C60.5126 397.863 60.5126 396.525 60.5126 395.188H28.5781C28.4109 395.188 28.4109 395.02 28.5781 395.188Z" fill="#2E3135"/>
<path d="M952.005 421.607C951.67 420.436 951.503 419.266 950.5 418.263C946.487 414.751 941.304 413.581 936.623 411.575C934.282 410.572 932.275 409.903 930.938 407.896C927.594 403.048 926.758 397.196 924.752 391.846C923.247 388 927.761 384.489 931.774 385.492C933.947 386.161 936.121 386.83 938.294 387.498C939.13 387.666 940.134 388.334 940.301 386.997C940.468 386.495 939.632 385.827 939.13 385.492C937.459 384.155 934.951 384.823 933.279 383.319C925.922 376.965 917.228 372.451 910.373 365.596C905.691 360.747 898.167 358.239 897.499 350.047C897.331 348.542 895.492 348.542 894.991 347.706C891.981 343.191 885.46 342.523 883.789 336.838C883.454 335.5 881.782 335.333 881.113 334.497C878.438 331.488 877.769 334.664 876.766 336.002C874.927 338.677 877.937 338.51 878.94 338.844C884.123 340.182 883.621 343.024 881.113 346.368C879.609 348.375 879.107 350.381 881.113 351.886C884.792 354.728 886.296 358.574 887.801 362.586C887.801 362.753 888.303 363.757 888.303 364.091C889.808 367.435 892.316 369.441 896.161 370.277C898.669 370.779 901.344 372.284 902.013 374.457C904.019 381.814 910.373 386.495 913.717 393.016C916.225 398.199 917.729 404.385 924.417 406.225C924.752 406.225 924.919 406.726 925.086 407.06C927.26 412.912 930.771 418.095 933.279 423.78C934.616 426.622 935.452 429.13 937.96 430.97C939.465 431.973 940.635 434.648 942.642 433.143C944.648 431.638 942.642 429.632 941.973 427.96C940.301 423.78 940.134 423.613 941.638 422.61C944.314 420.938 947.156 418.931 949.664 422.944C950.166 423.78 950.834 425.118 952.005 424.449C953.008 423.947 952.339 422.61 952.005 421.607Z" fill="#2E3135"/>
<path d="M942.474 433.307C944.481 431.803 942.474 429.796 941.805 428.124C940.133 423.944 939.966 423.777 941.471 422.774C944.146 421.102 946.989 419.096 949.496 423.108C949.998 423.944 950.667 425.282 951.837 424.613C953.008 423.944 952.339 422.774 952.004 421.771C951.67 420.6 951.503 419.43 950.5 418.427C946.487 414.916 941.304 413.745 936.622 411.739C934.282 410.736 932.275 410.067 930.938 408.061C928.597 404.55 927.427 400.704 926.256 396.691H915.221C917.06 400.871 919.067 404.884 924.25 406.222C924.584 406.222 924.751 406.723 924.919 407.058C927.092 412.909 930.603 418.093 933.111 423.777C934.449 426.62 935.285 429.128 937.793 430.967C939.297 432.137 940.468 434.812 942.474 433.307Z" fill="#2E3135"/>
<defs>
<linearGradient id="paint0_linear_21_2977" x1="246.474" y1="66.0315" x2="361.278" y2="184.894" gradientUnits="userSpaceOnUse">
<stop offset="0.0651821" stop-color="#BFD5E6"/>
<stop offset="1" stop-color="#BFD5E6" stop-opacity="0"/>
</linearGradient>
</defs>
</svg>
